<svg width="18px" height="18px" viewBox="0 0 18 18" version="1.1" xmlns="http://www.w3.org/2000/svg" xmlns:xlink="http://www.w3.org/1999/xlink">
    <g id="Page-1" stroke="none" stroke-width="1" fill="none" fill-rule="evenodd">
        <g id="Artboard" transform="translate(-2.000000, 0.000000)" fill="#FFFFFF" fill-rule="nonzero">
            <g id="gatsby" transform="translate(2.000000, 0.000000)">
                <path d="M9.00075,0.00525 C3.9945,0.00525 0.00525,3.9945 0.00525,9 C0.00525,14.0055 3.9945,17.99625 9,17.99625 C14.0055,17.99625 17.9955,14.007 17.9955,9.00075 C17.9955,3.9945 14.007,0.00525 9.00075,0.00525 Z M1.9605,9.07875 L8.92275,16.041 C5.0895,16.041 1.9605,12.912 1.9605,9.07875 Z M10.56525,15.88425 L2.11725,7.43625 C2.82,4.30725 5.637,1.9605 9,1.9605 C11.254986,1.96490658 13.3740728,3.03920064 14.7105,4.8555 L13.69425,5.715 C12.618101,4.14008849 10.8301943,3.2022946 8.92275,3.21225 C6.48672113,3.19660482 4.31333009,4.73975172 3.525,7.04475 L10.878,14.3985 C12.678,13.77225 14.085,12.2085 14.4765,10.3305 L11.4255,10.3305 L11.4255,9.00075 L16.041,9.00075 C16.041,12.3645 13.69425,15.18075 10.56525,15.88425 Z" id="Shape"></path>
            </g>
        </g>
    </g>
</svg>